<svg xmlns="http://www.w3.org/2000/svg" xmlns:xlink="http://www.w3.org/1999/xlink" width="500" zoomAndPan="magnify" viewBox="0 0 375 374.999991" height="500" preserveAspectRatio="xMidYMid meet" version="1.0"><defs><clipPath id="2b5c71dbbd"><path d="M 27.132812 6.886719 L 348.132812 6.886719 L 348.132812 90.480469 L 27.132812 90.480469 Z M 27.132812 6.886719 " clip-rule="nonzero"/></clipPath><clipPath id="a324f956ab"><path d="M 27.132812 128 L 265 128 L 265 259 L 27.132812 259 Z M 27.132812 128 " clip-rule="nonzero"/></clipPath><clipPath id="2cb8a9da98"><path d="M 27.132812 233.335938 L 110.714844 233.335938 L 110.714844 368.5 L 27.132812 368.5 Z M 27.132812 233.335938 " clip-rule="nonzero"/></clipPath><clipPath id="c25c26e3ad"><path d="M 27.132812 211 L 111 211 L 111 259 L 27.132812 259 Z M 27.132812 211 " clip-rule="nonzero"/></clipPath></defs><g clip-path="url(#2b5c71dbbd)"><path fill="#26a9e0" d="M 264.246094 90.007812 L 27.132812 90.007812 C 27.132812 90.007812 27.132812 6.886719 111.039062 6.886719 L 348.152344 6.886719 L 328.492188 42.113281 C 311.363281 72.804688 288.289062 90.007812 264.246094 90.007812 " fill-opacity="1" fill-rule="nonzero"/></g><g clip-path="url(#a324f956ab)"><path fill="#919396" d="M 27.132812 128.308594 L 27.132812 258.820312 C 27.136719 210.460938 110.238281 211.425781 110.238281 211.425781 L 180.34375 211.425781 C 204.378906 211.425781 227.457031 194.226562 244.589844 163.53125 L 264.246094 128.308594 L 27.132812 128.308594 " fill-opacity="1" fill-rule="nonzero"/></g><g clip-path="url(#2cb8a9da98)"><path fill="#5a5a5d" d="M 27.132812 258.820312 L 27.132812 368.5 L 62.351562 348.835938 C 93.039062 331.703125 110.238281 308.621094 110.238281 284.578125 L 110.238281 239.730469 C 88.085938 233.425781 39.992188 224.28125 27.132812 258.820312 " fill-opacity="1" fill-rule="nonzero"/></g><g clip-path="url(#c25c26e3ad)"><path fill="#424242" d="M 27.132812 258.820312 C 39.992188 224.28125 88.085938 233.425781 110.238281 239.730469 L 110.238281 211.425781 C 110.238281 211.425781 27.136719 210.460938 27.132812 258.820312 " fill-opacity="1" fill-rule="nonzero"/></g></svg>